<!DOCTYPE svg PUBLIC "-//W3C//DTD SVG 1.1//EN" "http://www.w3.org/Graphics/SVG/1.1/DTD/svg11.dtd">
<!-- Uploaded to: SVG Repo, www.svgrepo.com, Transformed by: SVG Repo Mixer Tools -->
<svg height="800px" width="800px" version="1.1" id="Capa_1" xmlns="http://www.w3.org/2000/svg" xmlns:xlink="http://www.w3.org/1999/xlink" viewBox="0 0 13.686 13.686" xml:space="preserve" fill="#000000">
<g id="SVGRepo_bgCarrier" stroke-width="0"/>
<g id="SVGRepo_tracerCarrier" stroke-linecap="round" stroke-linejoin="round"/>
<g id="SVGRepo_iconCarrier"> <g> <g> <path style="fill:#E5F5EC;" d="M11.92,2.856L9.478,0.123C9.409,0.045,9.309,0,9.204,0H2.041C1.838,0,1.674,0.165,1.674,0.368 v2.371v3.565v7.015c0,0.202,0.165,0.367,0.367,0.367h9.604c0.203,0,0.367-0.165,0.367-0.367V3.101 C12.013,3.01,11.979,2.924,11.92,2.856z M10.854,12.765H2.777V6.304V2.739V0.973h5.487L8.256,3.715 c0,0.108,0.043,0.212,0.119,0.289s0.18,0.12,0.288,0.12l2.19-0.002L10.854,12.765L10.854,12.765z"/> <path style="fill:#E5F5EC;" d="M7.073,9.455C6.6,9.572,6.229,8.424,5.591,8.326c-0.638-0.097-1.678,2.45-1.678,2.45h6.11 c0,0-0.287-4.264-1.438-4.229C7.433,6.582,7.545,9.338,7.073,9.455z"/> <circle style="fill:#E5F5EC;" cx="5.446" cy="6.12" r="0.872"/> </g> </g> </g>
</svg>