<!DOCTYPE svg PUBLIC "-//W3C//DTD SVG 1.1//EN" "http://www.w3.org/Graphics/SVG/1.1/DTD/svg11.dtd">
<!-- Uploaded to: SVG Repo, www.svgrepo.com, Transformed by: SVG Repo Mixer Tools -->
<svg height="800px" width="800px" version="1.1" id="_x35_" xmlns="http://www.w3.org/2000/svg" xmlns:xlink="http://www.w3.org/1999/xlink" viewBox="0 0 512 512" xml:space="preserve" fill="#000000">
<g id="SVGRepo_bgCarrier" stroke-width="0"/>
<g id="SVGRepo_tracerCarrier" stroke-linecap="round" stroke-linejoin="round"/>
<g id="SVGRepo_iconCarrier"> <g> <g> <path style="fill:#009A3E;" d="M512,13.054V240.48c0,7.181-5.874,13.054-13.054,13.054H11.458v-89.129l70.345-34.375 l30.242-116.976C112.045,5.875,117.92,0,125.172,0h373.774c3.699,0,7.035,1.523,9.428,4.062c1.088,1.232,2.031,2.537,2.683,4.06 C511.637,9.646,512,11.314,512,13.054z"/> <circle style="fill:#494649;" cx="130.181" cy="253.546" r="47.124"/> <circle style="fill:#E0E0E0;" cx="130.181" cy="253.546" r="21.676"/> <circle style="fill:#494649;" cx="396.811" cy="253.546" r="47.124"/> <circle style="fill:#E0E0E0;" cx="396.811" cy="253.546" r="21.676"/> <path style="fill:#E0E0E0;" d="M481.967,102.511H285.485c-3.921,0-7.129-3.208-7.129-7.129V44.755c0-3.921,3.208-7.13,7.129-7.13 h196.483c3.921,0,7.129,3.208,7.129,7.13v50.627C489.097,99.302,485.889,102.511,481.967,102.511z"/> <path style="opacity:0.08;fill:#040000;" d="M169.576,197.656V39.807c0-8.432,6.836-15.268,15.268-15.268h64.339 c8.432,0,15.268,6.836,15.268,15.268v157.85c0,8.432-6.836,15.268-15.268,15.268h-64.339 C176.411,212.924,169.576,206.088,169.576,197.656z"/> <path style="fill:#E0E0E0;" d="M247.295,102.511h-60.561c-2.239,0-4.071-1.832-4.071-4.071V41.696 c0-2.239,1.832-4.071,4.071-4.071h60.561c2.239,0,4.071,1.832,4.071,4.071V98.44C251.365,100.679,249.533,102.511,247.295,102.511 z"/> <path style="fill:#E0E0E0;" d="M147.987,22.903h-25.624l-25.851,99.91v4.454c0,2.278,1.864,4.142,4.142,4.142h47.333 c2.278,0,4.141-1.864,4.141-4.142V27.045C152.128,24.767,150.265,22.903,147.987,22.903z"/> <path style="fill:#E0E0E0;" d="M26.18,223.293v30.241H13.054c-0.217,0-0.508,0-0.725-0.073c-0.29,0-0.58,0-0.87-0.073 c-6.237-0.724-11.096-5.873-11.386-12.183C0,240.988,0,240.698,0,240.48v-4.132c0-6.601,5.004-12.185,11.458-12.909 c0.508-0.145,1.015-0.145,1.595-0.145H26.18z"/> <circle style="fill:#F8CA7B;" cx="26.174" cy="180.074" r="7.088"/> </g> <path style="opacity:0.08;fill:#050101;" d="M258.886,253.546h90.801c0,26.025,21.098,47.125,47.124,47.125 c26.026,0,47.124-21.1,47.124-47.125h54.977c7.197,0,13.086-5.889,13.086-13.086V13.088c0-3.488-1.402-6.652-3.648-9.005 L258.886,253.546z"/> </g> </g>
</svg>