<!DOCTYPE svg PUBLIC "-//W3C//DTD SVG 1.1//EN" "http://www.w3.org/Graphics/SVG/1.1/DTD/svg11.dtd">
<!-- Uploaded to: SVG Repo, www.svgrepo.com, Transformed by: SVG Repo Mixer Tools -->
<svg version="1.1" id="Layer_1" xmlns="http://www.w3.org/2000/svg" xmlns:xlink="http://www.w3.org/1999/xlink" viewBox="0 0 511.993 511.993" xml:space="preserve" width="800px" height="800px" fill="#000000">
<g id="SVGRepo_bgCarrier" stroke-width="0"/>
<g id="SVGRepo_tracerCarrier" stroke-linecap="round" stroke-linejoin="round"/>
<g id="SVGRepo_iconCarrier"> <g> <path style="fill:#FFDB2D;" d="M151.279,295.741L38.787,183.248c-3.172-3.172-4.919-7.424-4.919-11.974 c0-4.55,1.746-8.804,4.919-11.975c3.302-3.302,7.637-4.952,11.975-4.952c4.335,0,8.674,1.651,11.974,4.952l88.543,88.543v-47.897 l-64.595-64.595c-19.807-19.807-52.038-19.807-71.846,0C5.27,144.92,0,157.679,0,171.275c0,13.596,5.27,26.354,14.839,35.922 l136.44,136.441V295.741z"/> <polygon style="fill:#FFDB2D;" points="446.791,162.197 211.496,357.976 293.62,440.099 489.399,204.805 "/> </g> <rect x="394.023" y="178.536" transform="matrix(-0.7071 -0.7071 0.7071 -0.7071 640.4173 656.2094)" style="fill:#FFAE33;" width="124.183" height="33.868"/> <polygon style="fill:#009A3E;" points="252.884,168.504 99.971,168.504 87.21,462.03 252.884,462.03 "/> <polygon style="fill:#009A3E;" points="206.597,462.03 325.793,462.03 313.03,168.504 206.597,168.504 "/> <rect x="189.561" y="49.964" style="fill:#FFDB2D;" width="33.868" height="225.789"/> </g>
</svg>